<svg xmlns="http://www.w3.org/2000/svg" xmlns:xlink="http://www.w3.org/1999/xlink" width="1500" zoomAndPan="magnify" viewBox="0 0 1125 599.999999" height="800" preserveAspectRatio="xMidYMid meet" version="1.0"><defs><g/><clipPath id="id1"><path d="M 286.964844 99.507812 L 411.464844 99.507812 L 411.464844 205.257812 L 286.964844 205.257812 Z M 286.964844 99.507812 " clip-rule="nonzero"/></clipPath></defs><g fill="rgb(32.159424%, 44.309998%, 100%)" fill-opacity="1"><g transform="translate(49.131026, 445.160942)"><g><path d="M 47.726562 0 L 88.398438 0 L 88.398438 -190.90625 L 134.050781 -190.90625 L 134.050781 -226.183594 L 88.398438 -226.183594 C 88.398438 -253.988281 102.921875 -261.042969 124.503906 -261.042969 C 129.070312 -261.042969 134.050781 -260.628906 139.03125 -260.214844 L 139.03125 -294.246094 C 133.21875 -294.660156 127.824219 -295.074219 122.84375 -295.074219 C 73.871094 -295.074219 47.726562 -275.15625 47.726562 -226.183594 L 13.28125 -226.183594 L 13.28125 -190.90625 L 47.726562 -190.90625 Z M 47.726562 0 "/></g></g></g><g fill="rgb(32.159424%, 44.309998%, 100%)" fill-opacity="1"><g transform="translate(194.800788, 445.160942)"><g><path d="M 31.125 0 L 71.796875 0 L 71.796875 -290.511719 L 31.125 -290.511719 Z M 31.125 0 "/></g></g></g><g fill="rgb(32.159424%, 44.309998%, 100%)" fill-opacity="1"><g transform="translate(297.7242, 445.160942)"><g><path d="M 33.617188 0 L 74.289062 0 L 74.289062 -228.671875 L 33.617188 -228.671875 Z M 33.617188 0 "/></g></g></g><g fill="rgb(32.159424%, 44.309998%, 100%)" fill-opacity="1"><g transform="translate(409.362879, 445.160942)"><g><path d="M 30.710938 65.574219 L 71.382812 65.574219 L 71.382812 -29.464844 C 91.304688 -2.90625 119.109375 3.734375 146.914062 3.734375 C 222.863281 3.734375 262.703125 -50.632812 262.703125 -111.640625 C 262.703125 -173.0625 225.351562 -228.257812 147.332031 -228.257812 C 119.109375 -228.257812 87.566406 -219.128906 71.382812 -194.640625 L 71.382812 -224.523438 L 30.710938 -224.523438 Z M 71.382812 -112.46875 C 71.382812 -166.003906 109.5625 -192.566406 147.332031 -192.566406 C 196.71875 -192.566406 222.03125 -153.140625 222.03125 -112.46875 C 222.03125 -72.210938 196.71875 -32.371094 146.914062 -32.371094 C 109.148438 -32.371094 71.382812 -58.933594 71.382812 -112.46875 Z M 71.382812 -112.46875 "/></g></g></g><g fill="rgb(49.409485%, 85.099792%, 34.118652%)" fill-opacity="1"><g transform="translate(695.298816, 445.160942)"><g><path d="M 28.636719 -282.210938 C 28.636719 -266.4375 41.5 -258.554688 53.953125 -258.554688 C 66.816406 -258.554688 79.269531 -266.4375 79.269531 -282.210938 C 79.269531 -297.980469 66.816406 -305.449219 54.367188 -305.449219 C 41.5 -305.449219 28.636719 -297.566406 28.636719 -282.210938 Z M 33.617188 -227.011719 L 74.289062 -227.011719 L 74.289062 0 L 33.617188 0 Z M 33.617188 -227.011719 "/></g></g></g><g fill="rgb(49.409485%, 85.099792%, 34.118652%)" fill-opacity="1"><g transform="translate(806.937495, 445.160942)"><g><path d="M 71.796875 -196.71875 L 71.796875 -224.523438 L 31.125 -224.523438 L 31.125 0 L 71.796875 0 L 71.796875 -122.015625 C 71.796875 -161.027344 95.039062 -191.738281 137.785156 -191.738281 C 186.757812 -191.738281 197.960938 -162.6875 197.960938 -120.355469 L 197.960938 0 L 238.21875 0 L 238.21875 -120.769531 C 238.21875 -185.097656 209.167969 -227.84375 140.691406 -227.84375 C 112.46875 -227.84375 88.398438 -220.789062 71.796875 -196.71875 Z M 71.796875 -196.71875 "/></g></g></g><g clip-path="url(#id1)"><path fill="rgb(32.159424%, 44.309998%, 100%)" d="M 336.765625 205.253906 L 336.765625 167.933594 L 361.664062 167.933594 L 361.664062 205.253906 L 392.789062 205.253906 L 392.789062 155.492188 L 411.464844 155.492188 L 349.214844 99.507812 L 286.964844 155.492188 L 305.640625 155.492188 L 305.640625 205.253906 Z M 336.765625 205.253906 " fill-opacity="1" fill-rule="nonzero"/></g></svg>